<?xml version="1.0" encoding="UTF-8" standalone="no"?>
<!-- Created with Inkscape (http://www.inkscape.org/) -->

<svg
   xmlns:dc="http://purl.org/dc/elements/1.1/"
   xmlns:cc="http://creativecommons.org/ns#"
   xmlns:rdf="http://www.w3.org/1999/02/22-rdf-syntax-ns#"
   xmlns:svg="http://www.w3.org/2000/svg"
   xmlns="http://www.w3.org/2000/svg"
   xmlns:sodipodi="http://sodipodi.sourceforge.net/DTD/sodipodi-0.dtd"
   xmlns:inkscape="http://www.inkscape.org/namespaces/inkscape"
   version="1.1"
   id="svg6739"
   xml:space="preserve"
   width="880"
   height="880"
   viewBox="0 0 880 880"
   sodipodi:docname="bear-stencil-silhouette-freesvg.org.svg"
   inkscape:version="0.92.4 (5da689c313, 2019-01-14)"><metadata
     id="metadata6745"><rdf:RDF><cc:Work
         rdf:about=""><dc:format>image/svg+xml</dc:format><dc:type
           rdf:resource="http://purl.org/dc/dcmitype/StillImage" /><dc:title></dc:title></cc:Work></rdf:RDF></metadata><defs
     id="defs6743"><clipPath
       clipPathUnits="userSpaceOnUse"
       id="clipPath6755"><path
         d="M 0,660 H 660 V 0 H 0 Z"
         id="path6753"
         inkscape:connector-curvature="0" /></clipPath></defs><sodipodi:namedview
     pagecolor="#ffffff"
     bordercolor="#666666"
     borderopacity="1"
     objecttolerance="10"
     gridtolerance="10"
     guidetolerance="10"
     inkscape:pageopacity="0"
     inkscape:pageshadow="2"
     inkscape:window-width="1920"
     inkscape:window-height="1018"
     id="namedview6741"
     showgrid="false"
     inkscape:zoom="0.58231807"
     inkscape:cx="471.69492"
     inkscape:cy="374.74576"
     inkscape:window-x="-8"
     inkscape:window-y="-8"
     inkscape:window-maximized="1"
     inkscape:current-layer="g6747" /><g
     id="g6747"
     inkscape:groupmode="layer"
     inkscape:label="bear-stencil-silhouette-freesvg.org"
     transform="matrix(1.3333333,0,0,-1.3333333,0,880)"><g
       id="g7535"><path
         inkscape:connector-curvature="0"
         id="path6757"
         style="fill:#231f20;fill-opacity:1;fill-rule:nonzero;stroke:none"
         d="m 31.141,-25.146 h 3.677 c 1.135,0 2.026,0.106 2.672,0.318 0.646,0.212 1.161,0.51 1.545,0.893 0.54,0.541 0.961,1.269 1.262,2.182 0.302,0.914 0.453,2.022 0.453,3.322 0,1.804 -0.295,3.19 -0.887,4.159 -0.591,0.967 -1.31,1.617 -2.155,1.946 -0.612,0.235 -1.594,0.352 -2.949,0.352 h -3.618 z m -2.282,-2.031 v 17.235 h 5.932 c 1.338,0 2.36,-0.082 3.065,-0.247 0.986,-0.228 1.828,-0.639 2.525,-1.235 0.908,-0.767 1.587,-1.749 2.037,-2.944 0.451,-1.195 0.676,-2.562 0.676,-4.098 0,-1.308 -0.153,-2.469 -0.458,-3.479 -0.305,-1.011 -0.697,-1.848 -1.175,-2.51 -0.477,-0.663 -1,-1.184 -1.568,-1.564 -0.567,-0.38 -1.252,-0.668 -2.055,-0.864 -0.802,-0.196 -1.724,-0.294 -2.766,-0.294 z" /><path
         inkscape:connector-curvature="0"
         id="path6759"
         style="fill:#231f20;fill-opacity:1;fill-rule:nonzero;stroke:none"
         d="m 47.546,-19.739 h 6.969 c -0.094,1.052 -0.36,1.842 -0.799,2.368 -0.674,0.817 -1.548,1.225 -2.621,1.225 -0.971,0 -1.788,-0.326 -2.45,-0.978 -0.662,-0.651 -1.028,-1.523 -1.099,-2.615 m 6.946,-3.407 2.187,-0.281 c -0.345,-1.277 -0.983,-2.268 -1.915,-2.973 -0.931,-0.705 -2.122,-1.058 -3.571,-1.058 -1.824,0 -3.272,0.562 -4.34,1.687 -1.069,1.124 -1.603,2.701 -1.603,4.731 0,2.1 0.54,3.729 1.621,4.889 1.08,1.16 2.482,1.74 4.205,1.74 1.668,0 3.03,-0.568 4.088,-1.704 1.057,-1.136 1.586,-2.735 1.586,-4.794 0,-0.126 -0.004,-0.315 -0.012,-0.565 h -9.317 c 0.079,-1.373 0.467,-2.425 1.165,-3.155 0.698,-0.729 1.569,-1.095 2.612,-1.095 0.776,0 1.439,0.205 1.988,0.616 0.549,0.41 0.984,1.064 1.306,1.962" /><path
         inkscape:connector-curvature="0"
         id="path6761"
         style="fill:#231f20;fill-opacity:1;fill-rule:nonzero;stroke:none"
         d="m 58.489,-23.442 2.094,0.328 c 0.118,-0.842 0.445,-1.489 0.983,-1.937 0.538,-0.448 1.289,-0.673 2.254,-0.673 0.973,0 1.695,0.199 2.166,0.595 0.471,0.397 0.706,0.861 0.706,1.396 0,0.479 -0.207,0.855 -0.62,1.13 -0.289,0.189 -1.01,0.428 -2.163,0.719 -1.554,0.392 -2.631,0.731 -3.231,1.016 -0.6,0.286 -1.055,0.681 -1.365,1.187 -0.31,0.505 -0.464,1.063 -0.464,1.674 0,0.557 0.127,1.071 0.382,1.545 0.254,0.475 0.602,0.868 1.04,1.182 0.329,0.242 0.778,0.448 1.347,0.616 0.568,0.169 1.177,0.253 1.828,0.253 0.979,0 1.84,-0.141 2.58,-0.423 0.741,-0.282 1.288,-0.664 1.641,-1.145 0.352,-0.482 0.595,-1.125 0.729,-1.932 l -2.063,-0.281 c -0.094,0.642 -0.367,1.144 -0.818,1.505 -0.451,0.361 -1.089,0.541 -1.912,0.541 -0.974,0 -1.668,-0.161 -2.084,-0.483 -0.416,-0.321 -0.623,-0.698 -0.623,-1.13 0,-0.275 0.086,-0.523 0.259,-0.742 0.172,-0.228 0.443,-0.417 0.811,-0.566 0.212,-0.079 0.836,-0.259 1.872,-0.541 1.498,-0.401 2.543,-0.728 3.133,-0.982 0.59,-0.255 1.053,-0.625 1.389,-1.11 0.336,-0.487 0.504,-1.089 0.504,-1.81 0,-0.705 -0.206,-1.369 -0.617,-1.992 -0.412,-0.622 -1.006,-1.104 -1.783,-1.445 -0.776,-0.341 -1.654,-0.511 -2.634,-0.511 -1.623,0 -2.861,0.338 -3.711,1.013 -0.852,0.674 -1.395,1.675 -1.63,3.003" /><path
         inkscape:connector-curvature="0"
         id="path6763"
         style="fill:#231f20;fill-opacity:1;fill-rule:nonzero;stroke:none"
         d="m 71.378,-14.692 h 2.109 v -12.484 h -2.109 z m 0,4.75 h 2.109 v -2.438 h -2.109 z" /><path
         inkscape:connector-curvature="0"
         id="path6765"
         style="fill:#231f20;fill-opacity:1;fill-rule:nonzero;stroke:none"
         d="m 78.078,-20.712 c 0,-1.639 0.325,-2.834 0.974,-3.586 0.65,-0.753 1.464,-1.129 2.442,-1.129 0.97,0 1.784,0.374 2.442,1.123 0.657,0.748 0.985,1.922 0.985,3.522 0,1.528 -0.338,2.68 -1.015,3.457 -0.677,0.775 -1.492,1.164 -2.448,1.164 -0.938,0 -1.737,-0.383 -2.394,-1.147 -0.657,-0.764 -0.986,-1.899 -0.986,-3.404 m -1.75,-7.496 2.062,-0.313 c 0.086,-0.632 0.325,-1.093 0.716,-1.382 0.524,-0.391 1.24,-0.586 2.147,-0.586 0.978,0 1.733,0.196 2.265,0.588 0.531,0.392 0.892,0.941 1.079,1.647 0.11,0.432 0.16,1.337 0.153,2.718 -0.924,-1.094 -2.075,-1.641 -3.453,-1.641 -1.715,0 -3.043,0.619 -3.982,1.858 -0.94,1.238 -1.409,2.722 -1.409,4.455 0,1.191 0.216,2.29 0.646,3.297 0.431,1.006 1.056,1.785 1.874,2.333 0.819,0.548 1.78,0.823 2.885,0.823 1.472,0 2.687,-0.594 3.642,-1.781 v 1.5 h 1.953 v -10.789 c 0,-1.944 -0.198,-3.321 -0.593,-4.131 -0.396,-0.811 -1.023,-1.451 -1.881,-1.922 -0.858,-0.47 -1.914,-0.705 -3.168,-0.705 -1.488,0 -2.691,0.335 -3.608,1.005 -0.917,0.67 -1.36,1.678 -1.328,3.026" /><path
         inkscape:connector-curvature="0"
         id="path6767"
         style="fill:#231f20;fill-opacity:1;fill-rule:nonzero;stroke:none"
         d="m 90.104,-27.177 v 12.485 h 1.89 v -1.775 c 0.916,1.37 2.24,2.056 3.97,2.056 0.752,0 1.444,-0.135 2.074,-0.405 0.63,-0.271 1.102,-0.625 1.415,-1.065 0.313,-0.438 0.533,-0.96 0.658,-1.563 0.078,-0.392 0.118,-1.077 0.118,-2.057 v -7.676 h -2.11 v 7.598 c 0,0.862 -0.082,1.507 -0.246,1.934 -0.165,0.427 -0.456,0.769 -0.875,1.023 -0.419,0.256 -0.911,0.383 -1.474,0.383 -0.9,0 -1.677,-0.286 -2.331,-0.859 -0.653,-0.572 -0.98,-1.658 -0.98,-3.257 v -6.822 z" /><path
         inkscape:connector-curvature="0"
         id="path6769"
         style="fill:#231f20;fill-opacity:1;fill-rule:nonzero;stroke:none"
         d="m 105.062,-19.739 h 6.969 c -0.094,1.052 -0.361,1.842 -0.799,2.368 -0.674,0.817 -1.548,1.225 -2.621,1.225 -0.972,0 -1.788,-0.326 -2.45,-0.978 -0.662,-0.651 -1.029,-1.523 -1.099,-2.615 m 6.945,-3.407 2.188,-0.281 c -0.345,-1.277 -0.984,-2.268 -1.915,-2.973 -0.932,-0.705 -2.122,-1.058 -3.571,-1.058 -1.825,0 -3.272,0.562 -4.34,1.687 -1.07,1.124 -1.604,2.701 -1.604,4.731 0,2.1 0.54,3.729 1.621,4.889 1.081,1.16 2.483,1.74 4.205,1.74 1.668,0 3.031,-0.568 4.088,-1.704 1.057,-1.136 1.586,-2.735 1.586,-4.794 0,-0.126 -0.004,-0.315 -0.012,-0.565 h -9.316 c 0.078,-1.373 0.467,-2.425 1.165,-3.155 0.697,-0.729 1.568,-1.095 2.611,-1.095 0.777,0 1.439,0.205 1.989,0.616 0.548,0.41 0.984,1.064 1.305,1.962" /><path
         inkscape:connector-curvature="0"
         id="path6771"
         style="fill:#231f20;fill-opacity:1;fill-rule:nonzero;stroke:none"
         d="m 118.255,-20.948 c 0,-1.6 0.337,-2.795 1.01,-3.588 0.674,-0.791 1.469,-1.188 2.385,-1.188 0.924,0 1.709,0.378 2.355,1.135 0.646,0.757 0.969,1.911 0.969,3.464 0,1.71 -0.329,2.964 -0.987,3.765 -0.657,0.798 -1.468,1.199 -2.431,1.199 -0.94,0 -1.724,-0.385 -2.355,-1.152 -0.63,-0.77 -0.946,-1.981 -0.946,-3.635 m 6.688,-6.229 v 1.571 c -0.791,-1.235 -1.955,-1.852 -3.49,-1.852 -0.995,0 -1.91,0.274 -2.744,0.822 -0.834,0.549 -1.48,1.315 -1.938,2.299 -0.458,0.983 -0.688,2.113 -0.688,3.391 0,1.246 0.208,2.376 0.624,3.39 0.415,1.015 1.037,1.793 1.868,2.334 0.83,0.54 1.758,0.811 2.784,0.811 0.752,0 1.422,-0.158 2.01,-0.476 0.587,-0.317 1.065,-0.73 1.433,-1.239 v 6.184 h 2.11 v -17.235 z" /><path
         inkscape:connector-curvature="0"
         id="path6773"
         style="fill:#231f20;fill-opacity:1;fill-rule:nonzero;stroke:none"
         d="m 144.882,-20.911 c -0.767,-0.314 -1.918,-0.58 -3.451,-0.799 -0.869,-0.126 -1.484,-0.268 -1.844,-0.424 -0.36,-0.156 -0.637,-0.386 -0.833,-0.687 -0.196,-0.302 -0.294,-0.637 -0.294,-1.006 0,-0.565 0.213,-1.034 0.639,-1.41 0.426,-0.377 1.049,-0.565 1.869,-0.565 0.813,0 1.535,0.178 2.168,0.535 0.633,0.357 1.098,0.844 1.395,1.463 0.226,0.479 0.34,1.184 0.34,2.117 z m 0.172,-4.719 c -0.786,-0.668 -1.541,-1.141 -2.263,-1.415 -0.723,-0.275 -1.499,-0.413 -2.327,-0.413 -1.367,0 -2.418,0.335 -3.152,1.005 -0.734,0.67 -1.102,1.526 -1.102,2.567 0,0.612 0.139,1.17 0.416,1.675 0.278,0.506 0.641,0.911 1.09,1.217 0.45,0.306 0.955,0.536 1.518,0.693 0.414,0.11 1.039,0.216 1.875,0.318 1.703,0.203 2.957,0.446 3.762,0.728 0.007,0.29 0.011,0.475 0.011,0.553 0,0.863 -0.199,1.471 -0.598,1.823 -0.539,0.479 -1.341,0.718 -2.404,0.718 -0.992,0 -1.725,-0.175 -2.198,-0.524 -0.474,-0.348 -0.823,-0.965 -1.05,-1.851 l -2.062,0.281 c 0.188,0.886 0.497,1.601 0.928,2.146 0.43,0.544 1.052,0.963 1.867,1.256 0.814,0.295 1.758,0.442 2.831,0.442 1.064,0 1.929,-0.125 2.596,-0.376 0.665,-0.251 1.154,-0.567 1.467,-0.946 0.314,-0.38 0.533,-0.861 0.658,-1.44 0.071,-0.361 0.106,-1.012 0.106,-1.951 v -2.822 c 0,-1.967 0.045,-3.211 0.136,-3.733 0.09,-0.52 0.268,-1.019 0.536,-1.498 h -2.203 c -0.227,0.442 -0.373,0.957 -0.438,1.547" /><path
         inkscape:connector-curvature="0"
         id="path6775"
         style="fill:#231f20;fill-opacity:1;fill-rule:nonzero;stroke:none"
         d="m 150.31,-27.177 v 12.485 h 1.89 v -1.775 c 0.916,1.37 2.24,2.056 3.97,2.056 0.752,0 1.444,-0.135 2.074,-0.405 0.631,-0.271 1.102,-0.625 1.415,-1.065 0.313,-0.438 0.533,-0.96 0.658,-1.563 0.078,-0.392 0.118,-1.077 0.118,-2.057 v -7.676 h -2.11 v 7.598 c 0,0.862 -0.082,1.507 -0.246,1.934 -0.165,0.427 -0.456,0.769 -0.875,1.023 -0.419,0.256 -0.911,0.383 -1.474,0.383 -0.9,0 -1.677,-0.286 -2.331,-0.859 -0.653,-0.572 -0.98,-1.658 -0.98,-3.257 v -6.822 z" /><path
         inkscape:connector-curvature="0"
         id="path6777"
         style="fill:#231f20;fill-opacity:1;fill-rule:nonzero;stroke:none"
         d="m 165.081,-20.948 c 0,-1.6 0.336,-2.795 1.009,-3.588 0.674,-0.791 1.469,-1.188 2.385,-1.188 0.924,0 1.709,0.378 2.356,1.135 0.645,0.757 0.968,1.911 0.968,3.464 0,1.71 -0.329,2.964 -0.986,3.765 -0.658,0.798 -1.469,1.199 -2.432,1.199 -0.94,0 -1.724,-0.385 -2.355,-1.152 -0.63,-0.77 -0.945,-1.981 -0.945,-3.635 m 6.687,-6.229 v 1.571 c -0.791,-1.235 -1.955,-1.852 -3.49,-1.852 -0.994,0 -1.909,0.274 -2.743,0.822 -0.834,0.549 -1.481,1.315 -1.939,2.299 -0.458,0.983 -0.687,2.113 -0.687,3.391 0,1.246 0.207,2.376 0.623,3.39 0.415,1.015 1.037,1.793 1.868,2.334 0.83,0.54 1.758,0.811 2.785,0.811 0.752,0 1.421,-0.158 2.009,-0.476 0.587,-0.317 1.065,-0.73 1.433,-1.239 v 6.184 h 2.11 v -17.235 z" /><path
         inkscape:connector-curvature="0"
         id="path6779"
         style="fill:#231f20;fill-opacity:1;fill-rule:nonzero;stroke:none"
         d="m 183.724,-27.177 v 12.485 h 1.89 v -1.895 c 0.487,0.886 0.937,1.471 1.349,1.752 0.413,0.283 0.867,0.424 1.362,0.424 0.715,0 1.441,-0.228 2.18,-0.682 l -0.74,-1.957 c -0.516,0.301 -1.033,0.451 -1.549,0.451 -0.461,0 -0.876,-0.138 -1.243,-0.417 -0.368,-0.278 -0.63,-0.664 -0.787,-1.158 -0.235,-0.752 -0.353,-1.575 -0.353,-2.468 v -6.535 z" /><path
         inkscape:connector-curvature="0"
         id="path6781"
         style="fill:#231f20;fill-opacity:1;fill-rule:nonzero;stroke:none"
         d="m 193.345,-19.739 h 6.968 c -0.094,1.052 -0.36,1.842 -0.799,2.368 -0.674,0.817 -1.547,1.225 -2.62,1.225 -0.972,0 -1.789,-0.326 -2.451,-0.978 -0.662,-0.651 -1.028,-1.523 -1.098,-2.615 m 6.945,-3.407 2.187,-0.281 c -0.345,-1.277 -0.982,-2.268 -1.914,-2.973 -0.933,-0.705 -2.123,-1.058 -3.571,-1.058 -1.825,0 -3.272,0.562 -4.341,1.687 -1.068,1.124 -1.603,2.701 -1.603,4.731 0,2.1 0.54,3.729 1.621,4.889 1.081,1.16 2.482,1.74 4.206,1.74 1.667,0 3.03,-0.568 4.087,-1.704 1.057,-1.136 1.586,-2.735 1.586,-4.794 0,-0.126 -0.004,-0.315 -0.012,-0.565 h -9.316 c 0.078,-1.373 0.466,-2.425 1.164,-3.155 0.699,-0.729 1.569,-1.095 2.612,-1.095 0.776,0 1.439,0.205 1.988,0.616 0.549,0.41 0.984,1.064 1.306,1.962" /><path
         inkscape:connector-curvature="0"
         id="path6783"
         style="fill:#231f20;fill-opacity:1;fill-rule:nonzero;stroke:none"
         d="m 205.1,-9.942 h 2.109 V -27.176 H 205.1 Z" /><path
         inkscape:connector-curvature="0"
         id="path6785"
         style="fill:#231f20;fill-opacity:1;fill-rule:nonzero;stroke:none"
         d="m 212.07,-19.739 h 6.969 c -0.094,1.052 -0.361,1.842 -0.799,2.368 -0.674,0.817 -1.547,1.225 -2.62,1.225 -0.972,0 -1.789,-0.326 -2.451,-0.978 -0.662,-0.651 -1.028,-1.523 -1.099,-2.615 m 6.946,-3.407 2.187,-0.281 c -0.345,-1.277 -0.983,-2.268 -1.915,-2.973 -0.932,-0.705 -2.122,-1.058 -3.571,-1.058 -1.824,0 -3.271,0.562 -4.341,1.687 -1.068,1.124 -1.603,2.701 -1.603,4.731 0,2.1 0.541,3.729 1.622,4.889 1.08,1.16 2.482,1.74 4.205,1.74 1.668,0 3.03,-0.568 4.088,-1.704 1.057,-1.136 1.585,-2.735 1.585,-4.794 0,-0.126 -0.003,-0.315 -0.011,-0.565 h -9.317 c 0.079,-1.373 0.467,-2.425 1.165,-3.155 0.698,-0.729 1.568,-1.095 2.612,-1.095 0.776,0 1.439,0.205 1.987,0.616 0.549,0.41 0.985,1.064 1.307,1.962" /><path
         inkscape:connector-curvature="0"
         id="path6787"
         style="fill:#231f20;fill-opacity:1;fill-rule:nonzero;stroke:none"
         d="m 231.826,-20.911 c -0.767,-0.314 -1.918,-0.58 -3.452,-0.799 -0.869,-0.126 -1.483,-0.268 -1.843,-0.424 -0.361,-0.156 -0.638,-0.386 -0.834,-0.687 -0.196,-0.302 -0.293,-0.637 -0.293,-1.006 0,-0.565 0.213,-1.034 0.638,-1.41 0.426,-0.377 1.049,-0.565 1.87,-0.565 0.812,0 1.535,0.178 2.168,0.535 0.632,0.357 1.097,0.844 1.394,1.463 0.227,0.479 0.34,1.184 0.34,2.117 z m 0.172,-4.719 c -0.787,-0.668 -1.541,-1.141 -2.264,-1.415 -0.723,-0.275 -1.498,-0.413 -2.326,-0.413 -1.367,0 -2.418,0.335 -3.153,1.005 -0.734,0.67 -1.101,1.526 -1.101,2.567 0,0.612 0.138,1.17 0.416,1.675 0.277,0.506 0.64,0.911 1.09,1.217 0.449,0.306 0.955,0.536 1.517,0.693 0.414,0.11 1.039,0.216 1.875,0.318 1.703,0.203 2.957,0.446 3.762,0.728 0.008,0.29 0.012,0.475 0.012,0.553 0,0.863 -0.2,1.471 -0.598,1.823 -0.54,0.479 -1.341,0.718 -2.404,0.718 -0.993,0 -1.726,-0.175 -2.199,-0.524 -0.473,-0.348 -0.823,-0.965 -1.049,-1.851 l -2.063,0.281 c 0.188,0.886 0.497,1.601 0.928,2.146 0.431,0.544 1.053,0.963 1.867,1.256 0.815,0.295 1.758,0.442 2.831,0.442 1.065,0 1.93,-0.125 2.596,-0.376 0.665,-0.251 1.155,-0.567 1.468,-0.946 0.313,-0.38 0.532,-0.861 0.658,-1.44 0.07,-0.361 0.105,-1.012 0.105,-1.951 v -2.822 c 0,-1.967 0.045,-3.211 0.136,-3.733 0.09,-0.52 0.269,-1.019 0.536,-1.498 h -2.203 c -0.227,0.442 -0.373,0.957 -0.437,1.547" /><path
         inkscape:connector-curvature="0"
         id="path6789"
         style="fill:#231f20;fill-opacity:1;fill-rule:nonzero;stroke:none"
         d="m 236.394,-23.442 2.093,0.328 c 0.118,-0.842 0.446,-1.489 0.983,-1.937 0.538,-0.448 1.289,-0.673 2.254,-0.673 0.974,0 1.695,0.199 2.166,0.595 0.471,0.397 0.707,0.861 0.707,1.396 0,0.479 -0.207,0.855 -0.621,1.13 -0.289,0.189 -1.01,0.428 -2.163,0.719 -1.554,0.392 -2.631,0.731 -3.23,1.016 -0.601,0.286 -1.056,0.681 -1.366,1.187 -0.309,0.505 -0.464,1.063 -0.464,1.674 0,0.557 0.127,1.071 0.382,1.545 0.255,0.475 0.602,0.868 1.04,1.182 0.329,0.242 0.779,0.448 1.347,0.616 0.568,0.169 1.178,0.253 1.828,0.253 0.98,0 1.84,-0.141 2.581,-0.423 0.74,-0.282 1.287,-0.664 1.64,-1.145 0.352,-0.482 0.596,-1.125 0.729,-1.932 l -2.063,-0.281 c -0.094,0.642 -0.366,1.144 -0.818,1.505 -0.451,0.361 -1.088,0.541 -1.912,0.541 -0.973,0 -1.668,-0.161 -2.084,-0.483 -0.416,-0.321 -0.623,-0.698 -0.623,-1.13 0,-0.275 0.086,-0.523 0.259,-0.742 0.172,-0.228 0.443,-0.417 0.812,-0.566 0.212,-0.079 0.836,-0.259 1.871,-0.541 1.499,-0.401 2.543,-0.728 3.133,-0.982 0.59,-0.255 1.053,-0.625 1.389,-1.11 0.336,-0.487 0.505,-1.089 0.505,-1.81 0,-0.705 -0.206,-1.369 -0.618,-1.992 -0.412,-0.622 -1.006,-1.104 -1.782,-1.445 -0.777,-0.341 -1.655,-0.511 -2.635,-0.511 -1.623,0 -2.86,0.338 -3.711,1.013 -0.852,0.674 -1.395,1.675 -1.629,3.003" /><path
         inkscape:connector-curvature="0"
         id="path6791"
         style="fill:#231f20;fill-opacity:1;fill-rule:nonzero;stroke:none"
         d="m 250.861,-19.739 h 6.969 c -0.094,1.052 -0.361,1.842 -0.799,2.368 -0.674,0.817 -1.548,1.225 -2.621,1.225 -0.972,0 -1.788,-0.326 -2.451,-0.978 -0.662,-0.651 -1.028,-1.523 -1.098,-2.615 m 6.945,-3.407 2.188,-0.281 c -0.345,-1.277 -0.984,-2.268 -1.915,-2.973 -0.932,-0.705 -2.122,-1.058 -3.572,-1.058 -1.824,0 -3.271,0.562 -4.34,1.687 -1.069,1.124 -1.603,2.701 -1.603,4.731 0,2.1 0.54,3.729 1.621,4.889 1.08,1.16 2.482,1.74 4.205,1.74 1.668,0 3.031,-0.568 4.088,-1.704 1.057,-1.136 1.586,-2.735 1.586,-4.794 0,-0.126 -0.004,-0.315 -0.012,-0.565 h -9.316 c 0.078,-1.373 0.467,-2.425 1.164,-3.155 0.698,-0.729 1.569,-1.095 2.612,-1.095 0.777,0 1.439,0.205 1.988,0.616 0.549,0.41 0.984,1.064 1.306,1.962" /><path
         inkscape:connector-curvature="0"
         id="path6793"
         style="fill:#231f20;fill-opacity:1;fill-rule:nonzero;stroke:none"
         d="m 264.053,-20.948 c 0,-1.6 0.337,-2.795 1.01,-3.588 0.674,-0.791 1.469,-1.188 2.385,-1.188 0.924,0 1.709,0.378 2.355,1.135 0.646,0.757 0.969,1.911 0.969,3.464 0,1.71 -0.329,2.964 -0.987,3.765 -0.658,0.798 -1.468,1.199 -2.431,1.199 -0.94,0 -1.725,-0.385 -2.355,-1.152 -0.63,-0.77 -0.946,-1.981 -0.946,-3.635 m 6.688,-6.229 v 1.571 c -0.791,-1.235 -1.954,-1.852 -3.49,-1.852 -0.995,0 -1.91,0.274 -2.744,0.822 -0.834,0.549 -1.48,1.315 -1.938,2.299 -0.458,0.983 -0.688,2.113 -0.688,3.391 0,1.246 0.208,2.376 0.623,3.39 0.415,1.015 1.038,1.793 1.869,2.334 0.83,0.54 1.757,0.811 2.785,0.811 0.752,0 1.422,-0.158 2.009,-0.476 0.586,-0.317 1.065,-0.73 1.433,-1.239 v 6.184 h 2.109 v -17.235 z" /><path
         inkscape:connector-curvature="0"
         id="path6795"
         style="fill:#231f20;fill-opacity:1;fill-rule:nonzero;stroke:none"
         d="m 282.728,-14.692 h 2.109 v -12.484 h -2.109 z m 0,4.75 h 2.109 v -2.438 h -2.109 z" /><path
         inkscape:connector-curvature="0"
         id="path6797"
         style="fill:#231f20;fill-opacity:1;fill-rule:nonzero;stroke:none"
         d="m 288.073,-27.177 v 12.485 h 1.89 v -1.775 c 0.916,1.37 2.24,2.056 3.971,2.056 0.751,0 1.442,-0.135 2.073,-0.405 0.63,-0.271 1.102,-0.625 1.415,-1.065 0.314,-0.438 0.533,-0.96 0.659,-1.563 0.078,-0.392 0.117,-1.077 0.117,-2.057 v -7.676 h -2.11 v 7.598 c 0,0.862 -0.082,1.507 -0.247,1.934 -0.164,0.427 -0.455,0.769 -0.874,1.023 -0.419,0.256 -0.91,0.383 -1.473,0.383 -0.901,0 -1.678,-0.286 -2.331,-0.859 -0.654,-0.572 -0.981,-1.658 -0.981,-3.257 v -6.822 z" /><path
         inkscape:connector-curvature="0"
         id="path6799"
         style="fill:#231f20;fill-opacity:1;fill-rule:nonzero;stroke:none"
         d="m 310.043,-21.007 c 0,-1.607 0.326,-2.796 0.975,-3.564 0.649,-0.769 1.436,-1.153 2.359,-1.153 0.939,0 1.744,0.399 2.413,1.194 0.668,0.797 1.003,2.029 1.003,3.699 0,1.592 -0.327,2.783 -0.98,3.576 -0.653,0.791 -1.435,1.188 -2.342,1.188 -0.899,0 -1.696,-0.422 -2.388,-1.265 -0.693,-0.843 -1.04,-2.067 -1.04,-3.675 m -1.906,-10.951 v 17.266 h 1.922 v -1.622 c 0.454,0.633 0.968,1.11 1.539,1.427 0.571,0.318 1.265,0.476 2.08,0.476 1.066,0 2.005,-0.275 2.82,-0.822 0.814,-0.549 1.429,-1.324 1.844,-2.323 0.415,-0.999 0.623,-2.093 0.623,-3.285 0,-1.277 -0.229,-2.427 -0.687,-3.449 -0.458,-1.023 -1.124,-1.807 -1.997,-2.352 -0.874,-0.544 -1.793,-0.816 -2.756,-0.816 -0.705,0 -1.338,0.148 -1.898,0.445 -0.56,0.297 -1.02,0.672 -1.38,1.125 v -6.07 z" /><path
         inkscape:connector-curvature="0"
         id="path6801"
         style="fill:#231f20;fill-opacity:1;fill-rule:nonzero;stroke:none"
         d="m 329.674,-27.177 v 1.841 c -0.968,-1.415 -2.285,-2.122 -3.949,-2.122 -0.734,0 -1.42,0.141 -2.057,0.423 -0.636,0.282 -1.109,0.637 -1.418,1.064 -0.308,0.427 -0.525,0.95 -0.65,1.57 -0.086,0.415 -0.129,1.073 -0.129,1.974 v 7.735 h 2.11 v -6.92 c 0,-1.105 0.043,-1.848 0.128,-2.233 0.133,-0.555 0.415,-0.992 0.845,-1.309 0.43,-0.318 0.961,-0.476 1.595,-0.476 0.633,0 1.227,0.162 1.782,0.487 0.555,0.326 0.947,0.768 1.179,1.328 0.23,0.56 0.346,1.373 0.346,2.438 v 6.685 h 2.108 v -12.485 z" /><path
         inkscape:connector-curvature="0"
         id="path6803"
         style="fill:#231f20;fill-opacity:1;fill-rule:nonzero;stroke:none"
         d="m 336.804,-20.841 c 0,-1.498 0.204,-2.58 0.612,-3.247 0.667,-1.091 1.569,-1.636 2.708,-1.636 0.926,0 1.727,0.403 2.401,1.206 0.675,0.804 1.013,2.002 1.013,3.595 0,1.632 -0.324,2.836 -0.972,3.612 -0.647,0.777 -1.43,1.165 -2.348,1.165 -0.926,0 -1.727,-0.402 -2.402,-1.206 -0.674,-0.803 -1.012,-1.966 -1.012,-3.489 m 0.031,-6.336 h -1.953 v 17.235 h 2.109 v -6.145 c 0.895,1.117 2.035,1.676 3.424,1.676 0.769,0 1.496,-0.154 2.183,-0.465 0.686,-0.309 1.251,-0.744 1.694,-1.305 0.443,-0.559 0.791,-1.235 1.041,-2.027 0.252,-0.791 0.377,-1.638 0.377,-2.539 0,-2.139 -0.529,-3.792 -1.589,-4.96 -1.059,-1.167 -2.331,-1.751 -3.813,-1.751 -1.476,0 -2.633,0.613 -3.473,1.84 z" /><path
         inkscape:connector-curvature="0"
         id="path6805"
         style="fill:#231f20;fill-opacity:1;fill-rule:nonzero;stroke:none"
         d="m 348.231,-9.942 h 2.109 v -17.234 h -2.109 z" /><path
         inkscape:connector-curvature="0"
         id="path6807"
         style="fill:#231f20;fill-opacity:1;fill-rule:nonzero;stroke:none"
         d="m 353.623,-14.692 h 2.109 v -12.484 h -2.109 z m 0,4.75 h 2.109 v -2.438 h -2.109 z" /><path
         inkscape:connector-curvature="0"
         id="path6809"
         style="fill:#231f20;fill-opacity:1;fill-rule:nonzero;stroke:none"
         d="m 367.109,-22.599 2.079,-0.281 c -0.228,-1.432 -0.81,-2.553 -1.747,-3.363 -0.936,-0.811 -2.087,-1.215 -3.45,-1.215 -1.709,0 -3.082,0.559 -4.121,1.675 -1.039,1.116 -1.557,2.717 -1.557,4.802 0,1.347 0.223,2.527 0.669,3.537 0.447,1.011 1.126,1.769 2.039,2.275 0.914,0.505 1.907,0.758 2.98,0.758 1.355,0 2.465,-0.344 3.326,-1.029 0.861,-0.687 1.414,-1.662 1.657,-2.924 l -2.062,-0.313 c -0.196,0.84 -0.542,1.472 -1.04,1.896 -0.497,0.424 -1.098,0.635 -1.803,0.635 -1.065,0 -1.931,-0.382 -2.596,-1.147 -0.666,-0.765 -0.999,-1.975 -0.999,-3.63 0,-1.679 0.322,-2.898 0.965,-3.659 0.644,-0.761 1.483,-1.142 2.519,-1.142 0.831,0 1.525,0.256 2.082,0.767 0.557,0.511 0.91,1.297 1.059,2.358" /><path
         inkscape:connector-curvature="0"
         id="path6811"
         style="fill:#231f20;fill-opacity:1;fill-rule:nonzero;stroke:none"
         d="m 379.073,-20.948 c 0,-1.6 0.337,-2.795 1.01,-3.588 0.674,-0.791 1.469,-1.188 2.385,-1.188 0.924,0 1.709,0.378 2.355,1.135 0.646,0.757 0.969,1.911 0.969,3.464 0,1.71 -0.329,2.964 -0.986,3.765 -0.659,0.798 -1.469,1.199 -2.432,1.199 -0.939,0 -1.725,-0.385 -2.355,-1.152 -0.63,-0.77 -0.946,-1.981 -0.946,-3.635 m 6.688,-6.229 v 1.571 c -0.791,-1.235 -1.955,-1.852 -3.49,-1.852 -0.995,0 -1.91,0.274 -2.744,0.822 -0.834,0.549 -1.48,1.315 -1.938,2.299 -0.459,0.983 -0.688,2.113 -0.688,3.391 0,1.246 0.207,2.376 0.623,3.39 0.415,1.015 1.038,1.793 1.869,2.334 0.83,0.54 1.758,0.811 2.784,0.811 0.752,0 1.422,-0.158 2.01,-0.476 0.587,-0.317 1.065,-0.73 1.433,-1.239 v 6.184 h 2.109 v -17.235 z" /><path
         inkscape:connector-curvature="0"
         id="path6813"
         style="fill:#231f20;fill-opacity:1;fill-rule:nonzero;stroke:none"
         d="m 392.438,-20.937 c 0,-1.599 0.348,-2.796 1.045,-3.593 0.698,-0.795 1.575,-1.194 2.632,-1.194 1.05,0 1.923,0.401 2.62,1.2 0.698,0.8 1.046,2.019 1.046,3.658 0,1.545 -0.35,2.715 -1.052,3.512 -0.701,0.794 -1.572,1.193 -2.614,1.193 -1.057,0 -1.934,-0.397 -2.632,-1.188 -0.697,-0.793 -1.045,-1.988 -1.045,-3.588 m -2.172,0.002 c 0,2.312 0.641,4.024 1.926,5.137 1.073,0.924 2.38,1.387 3.923,1.387 1.715,0 3.116,-0.563 4.205,-1.687 1.089,-1.125 1.633,-2.678 1.633,-4.661 0,-1.605 -0.241,-2.869 -0.723,-3.79 -0.481,-0.921 -1.182,-1.636 -2.102,-2.145 -0.92,-0.509 -1.924,-0.764 -3.013,-0.764 -1.746,0 -3.158,0.561 -4.234,1.681 -1.077,1.12 -1.615,2.735 -1.615,4.842" /><path
         inkscape:connector-curvature="0"
         id="path6815"
         style="fill:#231f20;fill-opacity:1;fill-rule:nonzero;stroke:none"
         d="m 404.436,-27.177 v 12.485 h 1.89 v -1.747 c 0.392,0.609 0.911,1.1 1.561,1.471 0.649,0.371 1.387,0.557 2.217,0.557 0.922,0 1.679,-0.192 2.27,-0.574 0.59,-0.384 1.007,-0.919 1.249,-1.607 0.988,1.454 2.275,2.181 3.859,2.181 1.24,0 2.193,-0.343 2.86,-1.028 0.667,-0.687 1,-1.743 1,-3.168 v -8.57 h -2.11 v 7.868 c 0,0.847 -0.068,1.456 -0.206,1.83 -0.136,0.372 -0.385,0.671 -0.746,0.899 -0.361,0.227 -0.785,0.341 -1.27,0.341 -0.879,0 -1.609,-0.292 -2.189,-0.876 -0.58,-0.585 -0.87,-1.52 -0.87,-2.806 v -7.256 h -2.109 v 8.115 c 0,0.941 -0.172,1.647 -0.517,2.117 -0.345,0.47 -0.908,0.706 -1.691,0.706 -0.595,0 -1.145,-0.157 -1.651,-0.471 -0.504,-0.313 -0.871,-0.772 -1.097,-1.376 -0.227,-0.603 -0.341,-1.474 -0.341,-2.61 v -6.481 z" /><path
         inkscape:connector-curvature="0"
         id="path6817"
         style="fill:#231f20;fill-opacity:1;fill-rule:nonzero;stroke:none"
         d="m 432.438,-20.911 c -0.767,-0.314 -1.918,-0.58 -3.453,-0.799 -0.868,-0.126 -1.482,-0.268 -1.842,-0.424 -0.361,-0.156 -0.638,-0.386 -0.833,-0.687 -0.197,-0.302 -0.294,-0.637 -0.294,-1.006 0,-0.565 0.213,-1.034 0.638,-1.41 0.426,-0.377 1.049,-0.565 1.869,-0.565 0.813,0 1.536,0.178 2.168,0.535 0.633,0.357 1.098,0.844 1.395,1.463 0.227,0.479 0.34,1.184 0.34,2.117 z m 0.171,-4.719 c -0.786,-0.668 -1.541,-1.141 -2.263,-1.415 -0.723,-0.275 -1.498,-0.413 -2.326,-0.413 -1.368,0 -2.418,0.335 -3.153,1.005 -0.734,0.67 -1.101,1.526 -1.101,2.567 0,0.612 0.138,1.17 0.416,1.675 0.277,0.506 0.64,0.911 1.089,1.217 0.45,0.306 0.956,0.536 1.518,0.693 0.414,0.11 1.039,0.216 1.875,0.318 1.703,0.203 2.957,0.446 3.762,0.728 0.008,0.29 0.012,0.475 0.012,0.553 0,0.863 -0.2,1.471 -0.599,1.823 -0.539,0.479 -1.34,0.718 -2.403,0.718 -0.994,0 -1.726,-0.175 -2.199,-0.524 -0.473,-0.348 -0.823,-0.965 -1.049,-1.851 l -2.063,0.281 c 0.188,0.886 0.497,1.601 0.928,2.146 0.43,0.544 1.052,0.963 1.867,1.256 0.814,0.295 1.759,0.442 2.831,0.442 1.064,0 1.93,-0.125 2.596,-0.376 0.665,-0.251 1.154,-0.567 1.467,-0.946 0.314,-0.38 0.533,-0.861 0.659,-1.44 0.07,-0.361 0.105,-1.012 0.105,-1.951 v -2.822 c 0,-1.967 0.045,-3.211 0.136,-3.733 0.09,-0.52 0.268,-1.019 0.536,-1.498 h -2.203 c -0.228,0.442 -0.373,0.957 -0.438,1.547" /><path
         inkscape:connector-curvature="0"
         id="path6819"
         style="fill:#231f20;fill-opacity:1;fill-rule:nonzero;stroke:none"
         d="m 437.865,-14.692 h 2.109 v -12.484 h -2.109 z m 0,4.75 h 2.109 v -2.438 h -2.109 z" /><path
         inkscape:connector-curvature="0"
         id="path6821"
         style="fill:#231f20;fill-opacity:1;fill-rule:nonzero;stroke:none"
         d="m 443.21,-27.177 v 12.485 h 1.891 v -1.775 c 0.916,1.37 2.239,2.056 3.97,2.056 0.752,0 1.443,-0.135 2.074,-0.405 0.629,-0.271 1.101,-0.625 1.415,-1.065 0.313,-0.438 0.532,-0.96 0.658,-1.563 0.078,-0.392 0.117,-1.077 0.117,-2.057 v -7.676 h -2.109 v 7.598 c 0,0.862 -0.082,1.507 -0.247,1.934 -0.165,0.427 -0.457,0.769 -0.875,1.023 -0.418,0.256 -0.91,0.383 -1.473,0.383 -0.901,0 -1.678,-0.286 -2.331,-0.859 -0.654,-0.572 -0.981,-1.658 -0.981,-3.257 v -6.822 z" /><path
         inkscape:connector-curvature="0"
         id="path6823"
         style="fill:#231f20;fill-opacity:1;fill-rule:nonzero;stroke:none"
         d="m 465.181,-20.841 c 0,-1.498 0.204,-2.58 0.612,-3.247 0.667,-1.091 1.569,-1.636 2.708,-1.636 0.926,0 1.727,0.403 2.401,1.206 0.675,0.804 1.013,2.002 1.013,3.595 0,1.632 -0.324,2.836 -0.972,3.612 -0.647,0.777 -1.43,1.165 -2.348,1.165 -0.926,0 -1.727,-0.402 -2.402,-1.206 -0.674,-0.803 -1.012,-1.966 -1.012,-3.489 m 0.031,-6.336 h -1.953 v 17.235 h 2.109 v -6.145 c 0.895,1.117 2.035,1.676 3.424,1.676 0.769,0 1.496,-0.154 2.183,-0.465 0.686,-0.309 1.251,-0.744 1.694,-1.305 0.443,-0.559 0.791,-1.235 1.041,-2.027 0.252,-0.791 0.377,-1.638 0.377,-2.539 0,-2.139 -0.529,-3.792 -1.589,-4.96 -1.06,-1.167 -2.331,-1.751 -3.813,-1.751 -1.476,0 -2.633,0.613 -3.473,1.84 z" /><path
         inkscape:connector-curvature="0"
         id="path6825"
         style="fill:#231f20;fill-opacity:1;fill-rule:nonzero;stroke:none"
         d="m 476.562,-31.979 -0.235,1.99 c 0.461,-0.125 0.864,-0.188 1.208,-0.188 0.47,0 0.845,0.078 1.126,0.235 0.281,0.157 0.513,0.377 0.693,0.658 0.132,0.212 0.347,0.736 0.645,1.574 0.039,0.118 0.102,0.29 0.188,0.518 l -4.75,12.5 h 2.28 l 2.602,-7.198 c 0.338,-0.912 0.64,-1.872 0.908,-2.879 0.244,0.941 0.535,1.873 0.873,2.797 l 2.665,7.28 h 2.114 l -4.733,-12.704 c -0.51,-1.369 -0.906,-2.31 -1.188,-2.827 -0.376,-0.695 -0.807,-1.205 -1.293,-1.53 -0.486,-0.324 -1.066,-0.486 -1.74,-0.486 -0.407,0 -0.862,0.086 -1.363,0.26" /><path
         inkscape:connector-curvature="0"
         id="path6827"
         style="fill:#231f20;fill-opacity:1;fill-rule:nonzero;stroke:none"
         d="m 495.744,-27.177 v 17.235 h 11.625 v -2.032 h -9.344 v -5.343 h 8.094 v -2.032 h -8.094 v -7.828 z" /><path
         inkscape:connector-curvature="0"
         id="path6829"
         style="fill:#231f20;fill-opacity:1;fill-rule:nonzero;stroke:none"
         d="m 510.034,-27.177 v 12.485 h 1.891 v -1.895 c 0.487,0.886 0.936,1.471 1.349,1.752 0.413,0.283 0.866,0.424 1.362,0.424 0.715,0 1.441,-0.228 2.179,-0.682 l -0.74,-1.957 c -0.515,0.301 -1.032,0.451 -1.549,0.451 -0.461,0 -0.875,-0.138 -1.243,-0.417 -0.367,-0.278 -0.63,-0.664 -0.786,-1.158 -0.236,-0.752 -0.353,-1.575 -0.353,-2.468 v -6.535 z" /><path
         inkscape:connector-curvature="0"
         id="path6831"
         style="fill:#231f20;fill-opacity:1;fill-rule:nonzero;stroke:none"
         d="m 519.655,-19.739 h 6.969 c -0.094,1.052 -0.36,1.842 -0.799,2.368 -0.674,0.817 -1.548,1.225 -2.621,1.225 -0.972,0 -1.788,-0.326 -2.45,-0.978 -0.662,-0.651 -1.028,-1.523 -1.099,-2.615 m 6.946,-3.407 2.187,-0.281 c -0.345,-1.277 -0.983,-2.268 -1.915,-2.973 -0.932,-0.705 -2.122,-1.058 -3.571,-1.058 -1.824,0 -3.272,0.562 -4.34,1.687 -1.069,1.124 -1.604,2.701 -1.604,4.731 0,2.1 0.54,3.729 1.621,4.889 1.081,1.16 2.483,1.74 4.206,1.74 1.668,0 3.031,-0.568 4.087,-1.704 1.057,-1.136 1.586,-2.735 1.586,-4.794 0,-0.126 -0.004,-0.315 -0.011,-0.565 h -9.317 c 0.078,-1.373 0.467,-2.425 1.164,-3.155 0.699,-0.729 1.57,-1.095 2.613,-1.095 0.776,0 1.438,0.205 1.988,0.616 0.549,0.41 0.983,1.064 1.306,1.962" /><path
         inkscape:connector-curvature="0"
         id="path6833"
         style="fill:#231f20;fill-opacity:1;fill-rule:nonzero;stroke:none"
         d="m 533.035,-19.739 h 6.969 c -0.095,1.052 -0.36,1.842 -0.799,2.368 -0.674,0.817 -1.548,1.225 -2.621,1.225 -0.972,0 -1.788,-0.326 -2.45,-0.978 -0.662,-0.651 -1.029,-1.523 -1.099,-2.615 m 6.945,-3.407 2.188,-0.281 c -0.345,-1.277 -0.983,-2.268 -1.915,-2.973 -0.932,-0.705 -2.122,-1.058 -3.57,-1.058 -1.826,0 -3.273,0.562 -4.341,1.687 -1.07,1.124 -1.604,2.701 -1.604,4.731 0,2.1 0.54,3.729 1.621,4.889 1.081,1.16 2.483,1.74 4.205,1.74 1.668,0 3.031,-0.568 4.088,-1.704 1.058,-1.136 1.586,-2.735 1.586,-4.794 0,-0.126 -0.004,-0.315 -0.011,-0.565 h -9.317 c 0.078,-1.373 0.467,-2.425 1.165,-3.155 0.697,-0.729 1.569,-1.095 2.612,-1.095 0.776,0 1.439,0.205 1.988,0.616 0.549,0.41 0.984,1.064 1.305,1.962" /><path
         inkscape:connector-curvature="0"
         id="path6835"
         style="fill:#231f20;fill-opacity:1;fill-rule:nonzero;stroke:none"
         d="m 544.338,-21.646 2.156,0.188 c 0.102,-0.864 0.338,-1.574 0.709,-2.128 0.371,-0.554 0.948,-1.002 1.73,-1.344 0.781,-0.341 1.661,-0.512 2.637,-0.512 0.868,0 1.634,0.129 2.298,0.388 0.664,0.26 1.158,0.616 1.484,1.068 0.324,0.451 0.486,0.944 0.486,1.476 0,0.541 -0.156,1.013 -0.468,1.417 -0.311,0.404 -0.828,0.742 -1.549,1.017 -0.462,0.18 -1.484,0.461 -3.066,0.842 -1.583,0.38 -2.692,0.739 -3.328,1.077 -0.824,0.431 -1.438,0.967 -1.842,1.607 -0.404,0.639 -0.606,1.356 -0.606,2.149 0,0.871 0.247,1.685 0.741,2.442 0.493,0.757 1.215,1.332 2.163,1.725 0.948,0.392 2.003,0.588 3.163,0.588 1.278,0 2.404,-0.205 3.381,-0.616 0.976,-0.411 1.726,-1.015 2.252,-1.813 0.525,-0.798 0.807,-1.701 0.846,-2.711 l -2.187,-0.172 c -0.118,1.087 -0.515,1.908 -1.192,2.464 -0.678,0.556 -1.68,0.833 -3.003,0.833 -1.38,0 -2.384,-0.253 -3.015,-0.759 -0.631,-0.507 -0.946,-1.116 -0.946,-1.83 0,-0.62 0.223,-1.13 0.67,-1.53 0.438,-0.401 1.585,-0.811 3.437,-1.23 1.853,-0.42 3.124,-0.786 3.814,-1.099 1.002,-0.462 1.743,-1.048 2.221,-1.757 0.478,-0.709 0.717,-1.526 0.717,-2.449 0,-0.917 -0.263,-1.781 -0.787,-2.591 -0.525,-0.812 -1.277,-1.442 -2.26,-1.892 -0.982,-0.45 -2.089,-0.676 -3.317,-0.676 -1.558,0 -2.864,0.228 -3.916,0.682 -1.053,0.454 -1.879,1.138 -2.478,2.051 -0.598,0.912 -0.914,1.944 -0.945,3.095" /><path
         inkscape:connector-curvature="0"
         id="path6837"
         style="fill:#231f20;fill-opacity:1;fill-rule:nonzero;stroke:none"
         d="m 566.063,-27.177 -6.666,17.235 h 2.472 l 4.478,-12.516 c 0.36,-1.003 0.662,-1.943 0.905,-2.82 0.267,0.939 0.576,1.88 0.929,2.82 l 4.657,12.516 h 2.331 l -6.748,-17.235 z" /><path
         inkscape:connector-curvature="0"
         id="path6839"
         style="fill:#231f20;fill-opacity:1;fill-rule:nonzero;stroke:none"
         d="m 585.26,-20.427 v 2.031 h 7.297 v -6.388 c -1.12,-0.893 -2.277,-1.565 -3.468,-2.014 -1.191,-0.451 -2.413,-0.676 -3.666,-0.676 -1.694,0 -3.231,0.363 -4.613,1.088 -1.384,0.725 -2.428,1.774 -3.133,3.146 -0.705,1.372 -1.058,2.905 -1.058,4.598 0,1.678 0.351,3.244 1.052,4.698 0.701,1.455 1.71,2.535 3.026,3.24 1.317,0.706 2.833,1.058 4.549,1.058 1.245,0 2.372,-0.202 3.379,-0.606 1.007,-0.404 1.796,-0.968 2.368,-1.689 0.572,-0.722 1.007,-1.664 1.305,-2.827 l -2.058,-0.563 c -0.259,0.878 -0.58,1.568 -0.965,2.071 -0.383,0.503 -0.932,0.906 -1.645,1.208 -0.714,0.302 -1.506,0.453 -2.376,0.453 -1.042,0 -1.944,-0.158 -2.704,-0.476 -0.761,-0.317 -1.375,-0.735 -1.841,-1.252 -0.466,-0.517 -0.829,-1.085 -1.088,-1.704 -0.438,-1.066 -0.658,-2.222 -0.658,-3.468 0,-1.536 0.265,-2.821 0.794,-3.855 0.529,-1.036 1.299,-1.803 2.31,-2.305 1.011,-0.501 2.085,-0.752 3.222,-0.752 0.988,0 1.952,0.189 2.894,0.568 0.94,0.38 1.653,0.784 2.139,1.215 v 3.201 z" /><path
         inkscape:connector-curvature="0"
         id="path6841"
         style="fill:#231f20;fill-opacity:1;fill-rule:nonzero;stroke:none"
         d="m 596.239,-24.771 h 2.406 v -2.406 h -2.406 z" /><path
         inkscape:connector-curvature="0"
         id="path6843"
         style="fill:#231f20;fill-opacity:1;fill-rule:nonzero;stroke:none"
         d="m 603.705,-20.937 c 0,-1.599 0.349,-2.796 1.046,-3.593 0.697,-0.795 1.574,-1.194 2.632,-1.194 1.05,0 1.923,0.401 2.62,1.2 0.697,0.8 1.046,2.019 1.046,3.658 0,1.545 -0.351,2.715 -1.052,3.512 -0.701,0.794 -1.572,1.193 -2.614,1.193 -1.058,0 -1.935,-0.397 -2.632,-1.188 -0.697,-0.793 -1.046,-1.988 -1.046,-3.588 m -2.172,0.002 c 0,2.312 0.642,4.024 1.927,5.137 1.072,0.924 2.38,1.387 3.923,1.387 1.715,0 3.116,-0.563 4.205,-1.687 1.089,-1.125 1.633,-2.678 1.633,-4.661 0,-1.605 -0.242,-2.869 -0.723,-3.79 -0.481,-0.921 -1.183,-1.636 -2.102,-2.145 -0.92,-0.509 -1.924,-0.764 -3.013,-0.764 -1.746,0 -3.158,0.561 -4.235,1.681 -1.077,1.12 -1.615,2.735 -1.615,4.842" /><path
         inkscape:connector-curvature="0"
         id="path6845"
         style="fill:#231f20;fill-opacity:1;fill-rule:nonzero;stroke:none"
         d="m 615.679,-27.177 v 12.485 h 1.89 v -1.895 c 0.488,0.886 0.937,1.471 1.35,1.752 0.412,0.283 0.865,0.424 1.361,0.424 0.715,0 1.442,-0.228 2.18,-0.682 l -0.74,-1.957 c -0.516,0.301 -1.032,0.451 -1.549,0.451 -0.461,0 -0.875,-0.138 -1.243,-0.417 -0.367,-0.278 -0.63,-0.664 -0.786,-1.158 -0.237,-0.752 -0.354,-1.575 -0.354,-2.468 v -6.535 z" /><path
         inkscape:connector-curvature="0"
         id="path6847"
         style="fill:#231f20;fill-opacity:1;fill-rule:nonzero;stroke:none"
         d="m 625.077,-20.712 c 0,-1.639 0.325,-2.834 0.975,-3.586 0.649,-0.753 1.463,-1.129 2.441,-1.129 0.971,0 1.784,0.374 2.442,1.123 0.658,0.748 0.986,1.922 0.986,3.522 0,1.528 -0.338,2.68 -1.016,3.457 -0.676,0.775 -1.492,1.164 -2.447,1.164 -0.939,0 -1.737,-0.383 -2.395,-1.147 -0.657,-0.764 -0.986,-1.899 -0.986,-3.404 m -1.75,-7.496 2.063,-0.313 c 0.086,-0.632 0.325,-1.093 0.715,-1.382 0.525,-0.391 1.241,-0.586 2.148,-0.586 0.977,0 1.732,0.196 2.265,0.588 0.531,0.392 0.891,0.941 1.079,1.647 0.109,0.432 0.16,1.337 0.152,2.718 -0.924,-1.094 -2.074,-1.641 -3.453,-1.641 -1.715,0 -3.042,0.619 -3.982,1.858 -0.939,1.238 -1.409,2.722 -1.409,4.455 0,1.191 0.216,2.29 0.647,3.297 0.43,1.006 1.055,1.785 1.874,2.333 0.818,0.548 1.78,0.823 2.884,0.823 1.472,0 2.687,-0.594 3.642,-1.781 v 1.5 h 1.953 v -10.789 c 0,-1.944 -0.197,-3.321 -0.593,-4.131 -0.396,-0.811 -1.023,-1.451 -1.88,-1.922 -0.859,-0.47 -1.914,-0.705 -3.168,-0.705 -1.489,0 -2.692,0.335 -3.609,1.005 -0.917,0.67 -1.359,1.678 -1.328,3.026" /></g><g
       id="g7538"><path
         inkscape:connector-curvature="0"
         id="path6849"
         style="fill:#231f20;fill-opacity:1;fill-rule:evenodd;stroke:none"
         d="m 452.196,326.435 -1.508,-13.584 C 443.273,246.135 408.3,185.556 354.229,145.777 l 18.285,6.196 c 36.874,12.495 65.83,41.451 78.325,78.328 l 0.452,-7.697 c 1.487,-25.275 -5.231,-50.354 -19.156,-71.499 53.971,48.276 50.399,114.657 20.061,175.33 m -244.852,0 c -30.337,-60.673 -33.911,-127.054 20.062,-175.33 -13.925,21.145 -20.644,46.224 -19.157,71.499 l 0.452,7.697 c 12.496,-36.877 41.45,-65.833 78.327,-78.328 l 18.285,-6.196 c -54.073,39.779 -89.047,100.358 -96.46,167.074 z m 84.096,106.392 c -22.178,-12.589 -40.537,-30.946 -53.124,-53.124 -5.737,-10.109 -5.737,-22.489 0,-32.599 12.797,-22.546 19.615,-47.99 19.806,-73.915 0.092,-12.421 10.14,-22.47 22.561,-22.561 l -1.316,-7.96 c -2.205,-13.323 2.152,-26.89 11.7,-36.439 9.549,-9.548 23.118,-13.905 36.441,-11.701 l 0.003,0.447 0.004,-0.447 c 13.323,-2.204 26.891,2.153 36.441,11.701 9.55,9.549 13.906,23.116 11.701,36.439 l -1.318,7.96 c 12.423,0.091 22.472,10.14 22.563,22.561 0.191,25.925 7.007,51.369 19.806,73.915 5.735,10.11 5.735,22.49 0,32.599 -12.588,22.178 -30.946,40.535 -53.123,53.124 -33.851,19.211 -38.296,19.211 -72.145,0 m 36.071,-7.674 c -16.826,0 -36.419,-12.07 -42.054,-27.924 -5.354,-15.061 2.749,-36.342 16.064,-45.184 3.399,-2.258 7.28,-3.982 11.417,-5.176 3.829,-4.691 5.964,-10.594 5.964,-16.738 0,-7.638 -3.298,-14.902 -9.049,-19.926 l -10.263,-2.716 c -8.951,-2.37 -17.111,-7.084 -23.639,-13.65 l 2.509,-5.368 h 49.051 49.05 l 2.512,5.368 c -6.528,6.566 -14.687,11.28 -23.639,13.65 l -10.262,2.716 c -5.753,5.024 -9.051,12.288 -9.051,19.926 0,6.144 2.135,12.047 5.966,16.738 4.136,1.194 8.017,2.918 11.416,5.176 13.315,8.842 21.418,30.123 16.062,45.184 -5.634,15.854 -25.227,27.924 -42.054,27.924 m 164.045,71.058 11.491,-32.359 c 19.918,-11.5 44.458,-11.5 64.377,0 19.917,11.498 32.187,32.751 32.187,55.75 v 16.451 z m -323.57,0 -108.056,39.842 v -16.451 c 0,-22.999 12.269,-44.252 32.187,-55.75 19.919,-11.5 44.458,-11.5 64.375,0 z m 93.42,-18.577 c -4.272,0 -7.737,-3.845 -7.737,-8.589 0,-4.744 3.465,-8.588 7.737,-8.588 4.273,0 7.737,3.844 7.737,8.588 0,4.744 -3.464,8.589 -7.737,8.589 m 136.728,0 c -4.275,0 -7.738,-3.845 -7.738,-8.589 0,-4.744 3.463,-8.588 7.738,-8.588 4.272,0 7.736,3.844 7.736,8.588 0,4.744 -3.464,8.589 -7.736,8.589 M 196.4,540.281 67.729,576.423 c -7.142,2.006 -14.81,10e-4 -20.057,-5.245 -5.243,-5.244 -7.25,-12.913 -5.243,-20.054 l -1.447,-9.398 c -4.727,-30.733 5.469,-61.879 27.457,-83.865 21.987,-21.987 53.133,-32.184 83.866,-27.456 l -11.566,-31.806 c -20.717,-56.97 -20.717,-119.411 0,-176.381 l 7.95,32.528 7.954,-20.964 c 5.808,-15.313 12.828,-30.007 20.936,-43.971 -19.037,50.21 -28.475,103.496 -20.457,156.433 l -10.196,-19.352 c -0.123,44.629 24.508,85.896 64.526,108.108 l 27.015,10.739 c -3.476,4.343 -5.585,10.037 -5.585,16.271 0,13.242 9.51,24.047 21.445,24.644 -1.764,2.416 -3.75,4.7 -5.942,6.822 -10.268,9.931 -24.223,15.468 -38.743,15.369 l -12.905,-0.086 c 15.668,10.258 35.169,13.429 53.444,8.692 18.276,-4.736 33.523,-16.914 41.791,-33.375 2.84,-5.657 9.43,-8.567 15.71,-6.94 6.278,1.627 10.482,7.336 10.018,13.607 l -0.603,8.175 12.673,-7.276 12.673,7.276 -0.602,-8.175 c -0.463,-6.271 3.739,-11.98 10.017,-13.607 6.279,-1.627 12.871,1.283 15.71,6.94 8.268,16.461 23.516,28.639 41.791,33.375 18.275,4.737 37.776,1.566 53.446,-8.692 l -12.908,0.086 c -14.519,0.099 -28.474,-5.438 -38.742,-15.369 -2.192,-2.122 -4.178,-4.406 -5.942,-6.822 11.935,-0.597 21.446,-11.402 21.446,-24.644 0,-6.234 -2.11,-11.928 -5.586,-16.271 L 448.089,435 c 40.017,-22.212 64.648,-63.479 64.524,-108.108 l -10.194,19.352 c 8.017,-52.937 -1.422,-106.223 -20.458,-156.433 8.109,13.964 15.129,28.658 20.935,43.971 l 7.955,20.964 7.951,-32.528 c 20.715,56.97 20.715,119.411 0,176.381 l -11.568,31.806 c 30.735,-4.728 61.88,5.469 83.866,27.456 21.989,21.986 32.184,53.132 27.459,83.865 l -1.448,9.398 c 2.007,7.141 0,14.81 -5.245,20.054 -5.245,5.246 -12.913,7.251 -20.055,5.245 l -128.67,-36.142 c -66.107,56.192 -116.566,31.938 -133.371,23.128 -16.804,8.81 -67.264,33.064 -133.37,-23.128 m -42.459,-349.88 -9.373,-38.346 -22.982,63.2 c -22.35,61.461 -22.349,128.847 0,190.308 l 1.541,4.237 C 97.28,413.002 72.778,424.7 54.028,443.448 27.564,469.912 15.149,507.835 20.84,544.825 l 0.894,5.816 c -1.874,12.688 2.34,25.761 11.528,34.949 10.41,10.409 25.805,14.435 39.98,10.453 L 191.77,562.75 c 41.8,32.194 89.145,44.56 138,23.251 48.854,21.309 96.2,8.943 138.001,-23.251 l 118.528,33.293 c 14.176,3.982 29.569,-0.044 39.978,-10.453 9.189,-9.188 13.403,-22.261 11.53,-34.949 l 0.892,-5.816 c 5.692,-36.99 -6.723,-74.913 -33.186,-101.377 -18.749,-18.748 -43.254,-30.446 -69.1,-33.648 l 1.542,-4.237 c 22.349,-61.461 22.349,-128.847 0,-190.308 l -22.983,-63.2 -9.375,38.346 C 469.56,122.363 409.82,69.223 336.998,41.601 l -7.228,-2.742 -7.228,2.742 c -72.821,27.622 -132.562,80.762 -168.601,148.8" /></g></g></svg>